<?xml version="1.0" standalone="no"?>
<!DOCTYPE svg PUBLIC "-//W3C//DTD SVG 20010904//EN"
 "http://www.w3.org/TR/2001/REC-SVG-20010904/DTD/svg10.dtd">
<svg version="1.0" xmlns="http://www.w3.org/2000/svg"
 width="600.000000pt" height="600.000000pt" viewBox="0 0 600.000000 600.000000"
 preserveAspectRatio="xMidYMid meet">
<metadata>
Created by potrace 1.14, written by Peter Selinger 2001-2017
</metadata>
<g transform="translate(0.000000,600.000000) scale(0.100000,-0.100000)"
fill="#000000" stroke="none">
<path d="M0 4095 l0 -1905 63 6 c34 3 94 15 132 27 82 24 102 25 132 9 12 -7
53 -12 92 -12 39 0 90 -6 113 -14 24 -8 54 -13 67 -13 17 2 29 -7 41 -28 17
-30 16 -81 -1 -54 -13 21 -22 3 -10 -20 10 -17 8 -23 -9 -33 -11 -7 -20 -21
-20 -30 0 -9 -23 -42 -52 -72 -60 -64 -102 -79 -144 -51 -29 18 -28 49 3 84 9
11 22 33 29 50 10 25 10 32 -2 42 -16 13 -117 7 -137 -9 -7 -5 -37 -19 -67
-31 -56 -24 -180 -98 -191 -114 -4 -5 -12 -6 -19 -2 -9 5 -11 4 -6 -3 4 -7 2
-12 -3 -12 -7 0 -11 -31 -11 -81 l0 -82 35 6 c32 5 35 4 35 -18 0 -13 6 -26
13 -29 6 -3 0 -3 -15 0 -21 5 -28 2 -28 -9 0 -8 6 -17 12 -20 8 -3 6 -8 -7
-13 -40 -16 -45 -30 -45 -118 0 -90 3 -96 43 -74 24 12 79 28 117 33 14 2 25
4 25 5 0 3 28 7 88 13 27 2 50 0 54 -6 3 -6 1 -7 -5 -3 -7 4 -12 0 -12 -10 0
-15 7 -16 58 -10 31 3 102 17 157 30 128 31 215 45 290 46 33 0 108 10 167 21
59 12 113 19 120 16 7 -2 -5 -8 -27 -11 -22 -4 -49 -12 -60 -17 -11 -5 -74
-25 -140 -45 -66 -20 -124 -40 -130 -46 -10 -10 1 -10 113 8 l39 6 -5 -53 c-6
-84 -51 -168 -116 -218 -65 -50 -91 -51 -117 -2 -10 18 -34 52 -54 74 -21 23
-41 50 -45 61 -7 19 -9 18 -15 -9 -4 -16 -9 -38 -11 -47 -7 -24 -83 -97 -108
-104 -12 -3 -47 3 -77 13 -52 18 -54 21 -57 59 -2 21 -10 43 -17 47 -11 6 -12
14 -5 32 6 17 6 25 -1 25 -22 0 -165 -32 -179 -41 -15 -9 -12 -9 98 10 29 4
55 5 58 0 7 -12 -16 -139 -26 -139 -4 0 -10 -8 -12 -18 -5 -17 -66 -43 -170
-74 l-38 -10 0 -143 0 -142 48 -7 c30 -4 67 0 102 10 52 14 139 20 415 28 66
2 131 8 146 14 28 11 117 5 136 -11 9 -6 13 -6 13 1 0 5 17 13 38 17 20 3 56
15 79 25 42 18 150 27 123 10 -8 -5 -11 -12 -7 -16 3 -4 13 -1 22 6 12 10 15
10 15 -3 0 -9 -6 -17 -14 -19 -13 -3 -13 -6 -1 -22 14 -18 15 -18 26 8 7 14
16 26 21 26 13 0 9 -16 -7 -30 -8 -7 -13 -16 -10 -20 3 -4 -2 -10 -10 -14 -8
-3 -12 -12 -9 -21 4 -10 0 -15 -15 -15 -14 0 -21 -6 -21 -20 0 -10 -9 -24 -19
-30 -11 -5 -23 -19 -26 -31 -5 -14 -10 -17 -19 -10 -8 6 -19 4 -36 -9 -14 -11
-34 -20 -44 -20 -11 0 -28 -8 -39 -18 -11 -9 -17 -12 -13 -5 4 7 -2 16 -13 22
-28 15 -44 13 -37 -4 4 -11 -2 -15 -20 -15 -20 0 -25 4 -20 16 3 8 2 12 -4 9
-6 -3 -10 -13 -10 -22 0 -10 -6 -13 -16 -9 -10 4 -22 -1 -30 -11 -11 -15 -15
-16 -26 -4 -9 10 -9 12 0 7 7 -4 12 -1 12 7 0 26 -11 25 -67 -4 -30 -16 -65
-29 -78 -29 -13 0 -25 -5 -27 -11 -2 -7 -36 -14 -79 -17 -72 -4 -78 -3 -117
25 -23 17 -39 32 -37 35 2 2 -12 3 -31 3 -29 -1 -38 3 -45 22 -11 29 -19 30
-11 1 4 -18 2 -20 -18 -15 -13 3 -29 2 -36 -4 -8 -6 -14 -7 -18 0 -4 6 -18 6
-35 1 -17 -5 -33 -4 -38 1 -6 6 -28 7 -51 3 l-42 -7 0 -323 0 -324 3000 0
3000 0 0 3000 0 3000 -3000 0 -3000 0 0 -1905z m3456 1058 c-4 -4 -11 -1 -16
7 -16 25 -11 35 7 17 9 -9 13 -20 9 -24z m-33 -16 c-3 -5 -9 -3 -14 4 -4 7 -5
17 -2 22 3 5 9 3 14 -4 4 -7 5 -17 2 -22z m102 -7 c-3 -5 0 -8 7 -6 7 3 27 7
43 10 l30 6 -26 -14 c-14 -8 -50 -17 -80 -20 -30 -3 -46 -3 -36 0 9 3 17 12
17 20 0 8 10 14 26 14 14 0 22 -4 19 -10z m-2342 -75 c-12 -9 -19 -10 -22 -3
-4 12 20 29 32 21 4 -3 0 -11 -10 -18z m37 -64 c28 -6 46 -7 48 -1 7 20 32 9
32 -13 0 -50 -59 -106 -112 -107 -41 0 -58 19 -58 64 0 28 32 89 40 76 3 -5
26 -13 50 -19z m-190 -1008 c-10 -27 -30 -70 -44 -98 -14 -27 -26 -62 -26 -77
0 -14 -3 -28 -7 -30 -20 -8 -54 -93 -59 -144 -5 -55 -4 -56 18 -50 13 3 29 6
36 6 9 0 10 5 2 19 -11 22 -13 38 -4 28 10 -9 44 12 44 27 0 7 15 21 33 29 30
15 33 15 39 -1 8 -22 10 -14 12 50 1 31 6 53 14 56 6 2 12 8 12 12 0 5 -19 -2
-42 -15 -24 -14 -50 -25 -60 -25 -17 0 -17 3 17 100 14 38 46 66 85 75 14 2
59 14 100 25 108 29 225 39 386 35 165 -4 245 -17 294 -50 19 -13 54 -34 76
-47 96 -54 217 -171 208 -200 -3 -10 0 -18 6 -18 8 0 10 -11 6 -34 -5 -25 -2
-39 10 -50 10 -11 14 -25 10 -40 -4 -16 1 -32 15 -47 l20 -24 -6 25 c-6 23 -5
24 9 7 9 -12 13 -31 9 -53 -4 -25 -2 -35 11 -40 10 -4 16 -18 16 -41 0 -28 3
-34 16 -29 9 3 12 2 9 -5 -4 -5 -2 -15 3 -22 11 -14 23 -130 28 -262 4 -113
10 -141 28 -126 7 6 16 8 19 4 14 -14 6 -32 -20 -45 -41 -19 -68 -75 -59 -122
5 -28 11 -36 22 -32 11 4 14 1 12 -11 -2 -14 -12 -17 -38 -15 -46 3 -51 -2
-85 -73 -15 -33 -43 -78 -63 -100 -82 -94 -102 -115 -111 -115 -5 0 -11 -3
-13 -7 -1 -5 -21 -23 -43 -42 -22 -18 -47 -45 -56 -60 -10 -15 -23 -25 -34
-23 -10 2 -14 -1 -10 -7 3 -7 -2 -11 -14 -11 -12 0 -21 -4 -21 -8 0 -4 -15
-13 -32 -21 -20 -7 -28 -15 -20 -18 26 -10 80 8 153 52 41 25 80 43 86 40 7
-2 32 8 55 24 54 35 79 44 75 28 -1 -7 3 -11 8 -10 6 1 10 -12 10 -28 0 -16
-3 -29 -7 -29 -5 0 -8 -7 -8 -15 0 -8 -6 -15 -13 -15 -21 0 -77 -30 -77 -41 0
-6 5 -7 12 -3 7 4 8 3 4 -4 -4 -7 -19 -10 -34 -7 -15 3 -21 2 -13 -1 11 -5 11
-8 0 -16 -11 -7 -9 -8 4 -4 11 3 31 9 45 13 24 6 26 5 13 -10 -7 -9 -18 -14
-23 -11 -5 3 -16 -3 -24 -14 -21 -30 -147 -78 -302 -117 -181 -44 -217 -49
-288 -36 -32 7 -121 20 -197 31 -76 11 -151 27 -165 35 -15 8 -25 15 -22 15
29 7 40 7 40 -1 0 -22 16 -7 18 17 1 19 -2 25 -12 21 -8 -3 -13 1 -12 11 1 14
-54 50 -134 88 -8 4 -22 14 -31 23 -34 34 -58 49 -64 43 -3 -4 -3 2 1 13 4 11
4 17 -1 13 -9 -9 -35 9 -35 24 0 6 9 8 20 5 24 -6 26 6 5 27 -8 8 -15 17 -15
21 0 3 -9 16 -21 28 -11 12 -42 54 -68 92 -79 119 -142 355 -122 461 5 27 7
52 5 56 -3 4 5 28 16 53 27 60 21 80 -10 29 -13 -21 -38 -62 -57 -91 -18 -28
-33 -56 -33 -61 0 -16 -37 -44 -45 -33 -3 6 -3 16 0 21 11 17 -11 11 -28 -8
-10 -10 -14 -22 -10 -27 5 -4 -3 -2 -16 5 -16 8 -20 15 -13 22 6 6 8 26 5 44
-4 26 1 43 21 74 14 22 26 43 26 46 0 4 10 21 23 38 13 17 33 55 46 85 13 30
49 106 80 170 52 106 68 137 92 181 5 8 18 35 30 60 16 32 23 40 26 28 3 -10
-3 -28 -11 -40 -18 -25 -20 -38 -8 -38 5 0 16 18 26 40 10 22 21 40 26 40 10
0 90 131 115 188 10 24 26 49 34 55 9 7 24 29 33 50 25 52 30 46 8 -10z m4362
-312 c-1 -13 5 -29 15 -36 17 -12 16 -15 -7 -33 -14 -11 -36 -30 -50 -41 -52
-46 -85 -60 -149 -62 -34 -1 -67 3 -73 9 -15 15 49 76 149 141 84 55 120 62
115 22z m-2888 -131 c24 0 45 -26 52 -64 l7 -39 -71 6 c-90 9 -102 14 -102 43
0 24 41 54 75 54 8 0 15 6 16 13 0 10 2 10 6 0 2 -7 10 -13 17 -13z m25 -620
c0 -26 -2 -31 -9 -20 -8 13 -10 13 -10 -2 0 -9 5 -18 11 -20 8 -3 8 -15 0 -45
-6 -22 -13 -59 -15 -81 -2 -22 -11 -55 -19 -73 -8 -19 -22 -52 -31 -74 -14
-34 -16 -36 -12 -10 3 17 8 50 12 75 3 25 10 50 16 57 5 6 13 53 19 104 5 51
13 97 19 103 5 5 7 23 5 40 -4 28 -4 29 4 6 5 -14 9 -41 10 -60z m-2209 -125
c19 -23 8 -25 -14 -4 -11 11 -15 19 -9 19 6 0 16 -7 23 -15z m-43 -86 c2 -8
-15 -22 -40 -32 -23 -10 -55 -25 -70 -34 -16 -8 -31 -12 -34 -9 -4 3 -1 6 6 6
7 0 10 4 6 9 -3 5 -1 12 5 16 5 3 10 14 10 25 0 10 7 20 15 24 9 3 15 0 15 -8
0 -18 41 -9 53 11 10 17 31 12 34 -8z m2494 -49 c1 -8 1 -22 0 -31 -1 -9 5
-22 13 -29 12 -9 13 -17 5 -31 -5 -11 -14 -17 -18 -14 -5 3 -12 -2 -15 -11 -5
-14 -9 -14 -23 -3 -14 12 -15 11 -10 -6 4 -13 -1 -29 -14 -44 l-20 -25 -35 19
c-30 16 -40 17 -67 7 -19 -7 -33 -8 -35 -3 -2 6 -10 7 -18 4 -9 -3 -14 2 -14
17 0 11 -4 18 -10 15 -16 -10 -11 18 8 48 10 15 22 24 25 20 4 -3 7 4 7 16 0
12 4 20 9 17 5 -3 16 5 25 18 8 14 25 27 36 31 15 5 19 12 15 25 -5 16 0 19
42 22 41 3 51 -1 70 -22 12 -14 23 -32 24 -40z m-205 23 c-10 -10 -19 5 -10
18 6 11 8 11 12 0 2 -7 1 -15 -2 -18z m-2446 -63 c0 -5 -5 -10 -11 -10 -5 0
-7 5 -4 10 3 6 8 10 11 10 2 0 4 -4 4 -10z m2297 -97 c-3 -3 -11 -2 -17 2 -9
6 -9 10 1 16 14 8 27 -7 16 -18z m-48 -83 c-25 -36 -35 -45 -45 -36 -6 6 -10
15 -7 20 3 4 10 2 15 -5 7 -11 8 -9 4 4 -7 22 23 66 41 60 7 -3 10 4 7 19 -5
21 -4 21 6 5 10 -16 6 -27 -21 -67z m-308 -81 c-12 -12 -25 -18 -28 -15 -3 3
5 14 18 25 31 25 39 17 10 -10z m239 12 c0 -5 -9 -11 -21 -14 -16 -4 -18 -3
-8 9 13 16 29 19 29 5z m2650 -196 c0 -40 -32 -68 -67 -59 -20 6 -20 7 -5 27
20 24 63 67 68 67 2 0 4 -16 4 -35z m-1878 -62 c4 -33 0 -42 -27 -68 -57 -55
-135 -63 -135 -15 0 23 113 120 139 120 14 0 20 -9 23 -37z m-505 -49 c21 -11
32 -22 29 -30 -3 -8 2 -14 12 -15 15 -1 15 -2 -1 -6 -17 -4 -16 -7 4 -39 11
-19 18 -40 16 -47 -4 -7 -8 -4 -12 9 -6 20 -52 54 -73 54 -6 0 -13 -13 -17
-29 -3 -16 -13 -32 -22 -35 -9 -4 -13 -9 -10 -12 3 -3 -1 -21 -9 -39 -18 -44
-19 -40 20 -70 38 -29 56 -26 104 18 17 16 22 17 22 6 0 -40 -108 -109 -170
-109 -54 0 -88 21 -130 79 -39 53 -46 95 -26 141 20 44 32 59 76 92 66 48 129
59 187 32z m-845 -85 c109 -30 162 -191 98 -297 -24 -40 -60 -45 -53 -7 3 13
11 30 19 36 8 6 14 21 14 33 0 16 -2 18 -9 7 -7 -11 -32 -15 -96 -16 -63 -1
-89 -5 -95 -15 -6 -9 -5 -17 2 -21 15 -10 0 -29 -23 -29 -33 0 -57 18 -76 57
-25 54 -20 105 18 161 35 51 57 71 104 89 39 15 52 15 97 2z m3344 -77 c-23
-23 -33 -6 -10 19 12 13 20 16 22 9 3 -7 -3 -19 -12 -28z m-51 -60 c-15 -16
-16 -15 -4 12 7 15 15 23 17 16 3 -7 -3 -19 -13 -28z m-27 -42 c-7 -10 -14
-17 -17 -15 -4 4 18 35 25 35 2 0 -1 -9 -8 -20z m-4868 -84 c0 -3 -4 -8 -10
-11 -5 -3 -10 -1 -10 4 0 6 5 11 10 11 6 0 10 -2 10 -4z m1269 -135 c2 -1 -4
-13 -14 -27 -9 -14 -14 -32 -11 -40 3 -8 -4 -19 -17 -25 -12 -6 -31 -20 -42
-30 -31 -27 -86 -29 -100 -3 -10 21 -10 21 -36 -6 -15 -14 -29 -35 -33 -46 -3
-10 -29 -30 -56 -43 -28 -13 -55 -33 -61 -43 -6 -12 -21 -18 -43 -18 -29 0
-35 5 -51 40 -14 31 -16 43 -7 52 7 7 12 32 12 56 0 26 4 41 10 37 6 -3 10 0
10 8 0 17 28 31 102 51 72 20 107 20 130 -1 17 -15 20 -15 42 7 19 17 33 21
60 18 19 -2 33 -1 30 3 -7 11 40 17 75 10z m251 -407 c0 -18 -53 -74 -70 -74
-8 0 -8 6 1 21 6 12 7 24 3 28 -18 13 -13 38 8 48 27 12 58 0 58 -23z m-90 -8
c0 -3 -4 -8 -10 -11 -5 -3 -10 -1 -10 4 0 6 5 11 10 11 6 0 10 -2 10 -4z m683
-102 c20 -21 -71 -104 -113 -104 -33 0 -23 25 27 69 45 39 71 49 86 35z"/>
<path d="M1387 3881 c-32 -5 -85 -14 -117 -21 -55 -12 -58 -14 -49 -32 19 -35
2 -81 -38 -108 -20 -14 -48 -28 -62 -31 -19 -5 -16 -6 11 -4 20 2 47 12 59 24
13 12 27 21 32 21 10 0 -10 -29 -28 -42 -6 -5 -6 -8 2 -8 6 0 19 7 28 17 13
13 19 13 25 4 5 -9 10 -10 14 -2 4 6 4 11 -1 12 -24 3 100 31 147 34 30 2 80
10 111 18 31 8 73 14 95 12 52 -4 227 -32 256 -40 28 -9 69 -45 63 -55 -3 -5
2 -10 10 -14 8 -3 15 -12 15 -20 0 -10 6 -13 15 -10 10 4 15 0 15 -15 0 -12 6
-21 14 -21 8 0 16 -7 18 -16 2 -9 19 -22 38 -28 24 -7 36 -18 38 -33 2 -15 8
-20 19 -16 13 5 15 1 9 -20 -5 -20 -3 -27 9 -27 8 0 15 7 15 15 0 8 5 15 10
15 10 0 -26 58 -44 72 -5 3 -16 4 -25 1 -11 -4 -9 0 4 10 19 15 19 16 1 35
-10 12 -15 25 -12 30 3 5 -8 22 -24 37 -17 16 -30 35 -30 42 0 7 -7 13 -15 13
-8 0 -15 4 -15 9 0 5 -11 12 -24 15 -14 3 -34 19 -45 35 -29 40 -146 77 -271
85 -52 4 -122 8 -155 11 -33 2 -86 0 -118 -4z"/>
<path d="M1928 2263 c-10 -2 -18 -8 -18 -12 0 -7 -35 -19 -72 -25 -3 -1 -10
-4 -14 -8 -4 -5 -17 -8 -28 -8 -18 0 -17 -2 7 -15 26 -13 32 -13 75 9 26 13
56 33 66 45 19 21 17 23 -16 14z"/>
<path d="M1440 2234 c0 -7 -6 -15 -12 -17 -10 -4 -9 -6 1 -6 11 -1 11 -4 0
-17 -13 -15 -7 -16 69 -12 45 3 88 10 94 16 9 9 8 12 -4 12 -8 0 -27 9 -41 20
-29 23 -107 26 -107 4z"/>
<path d="M1160 2130 c0 -5 7 -10 15 -10 8 0 15 5 15 10 0 6 -7 10 -15 10 -8 0
-15 -4 -15 -10z"/>
<path d="M2356 2455 c-9 -26 -7 -32 5 -12 6 10 9 21 6 23 -2 3 -7 -2 -11 -11z"/>
<path d="M1575 1180 c-3 -5 -1 -10 4 -10 6 0 11 5 11 10 0 6 -2 10 -4 10 -3 0
-8 -4 -11 -10z"/>
<path d="M540 1443 c1 -18 18 -35 24 -24 4 6 4 16 1 21 -7 12 -25 13 -25 3z"/>
<path d="M20 1330 c-24 -8 -23 -8 8 -9 20 -1 31 3 27 9 -3 6 -7 10 -8 9 -1 -1
-13 -5 -27 -9z"/>
<path d="M1090 840 c0 -5 5 -10 11 -10 5 0 7 5 4 10 -3 6 -8 10 -11 10 -2 0
-4 -4 -4 -10z"/>
<path d="M1033 752 c-3 -12 -10 -22 -17 -22 -6 0 -4 -5 4 -10 12 -7 17 -3 22
17 4 15 5 29 2 32 -3 3 -7 -5 -11 -17z"/>
<path d="M945 700 c-3 -5 1 -10 9 -10 9 0 16 5 16 10 0 6 -4 10 -9 10 -6 0
-13 -4 -16 -10z"/>
<path d="M628 643 c6 -2 18 -2 25 0 6 3 1 5 -13 5 -14 0 -19 -2 -12 -5z"/>
</g>
</svg>
